<?xml version="1.0" encoding="utf-8"?>
<!-- Generator: Adobe Illustrator 21.0.0, SVG Export Plug-In . SVG Version: 6.00 Build 0)  -->
<svg version="1.1" id="Calque_1" xmlns="http://www.w3.org/2000/svg" xmlns:xlink="http://www.w3.org/1999/xlink" x="0px" y="0px"
	 viewBox="0 0 22 22" style="enable-background:new 0 0 22 22;" xml:space="preserve">
<style type="text/css">
	.st0{fill:#FFFFFF;}
</style>
<g>
	<path class="st0" d="M2.1,1.8l17.2,6l-5.5,2.7c-0.3,0.1-0.5,0.4-0.5,0.7c-0.1,0.3,0.1,0.6,0.3,0.9l4.5,4.5l-1.3,1.3l-4.5-4.5
		c-0.2-0.2-0.4-0.3-0.7-0.3c-0.1,0-0.1,0-0.2,0c-0.3,0.1-0.6,0.3-0.7,0.5l-2.7,5.5L2.1,1.8 M0.5,0.2l7.4,21.5l3.7-7.6l5.2,5.2
		l2.7-2.7l-5.2-5.2l7.6-3.7L0.5,0.2L0.5,0.2z"/>
</g>
</svg>
