<?xml version="1.0" encoding="utf-8"?>
<!-- Generator: Adobe Illustrator 21.0.0, SVG Export Plug-In . SVG Version: 6.00 Build 0)  -->
<svg version="1.1" id="Calque_1" xmlns="http://www.w3.org/2000/svg" xmlns:xlink="http://www.w3.org/1999/xlink" x="0px" y="0px"
	 viewBox="0 0 30 30" style="enable-background:new 0 0 30 30;" xml:space="preserve">
<style type="text/css">
	.st0{fill:#FFFFFF;}
</style>
<g>
	<path class="st0" d="M23.1,11.6V8.6c0-4.2-3.8-7.6-8.4-7.6S6.3,4.4,6.3,8.6v2.9c-1.8,0.3-3.2,1.9-3.2,3.7v10.3
		c0,2.1,1.7,3.8,3.8,3.8h15.5c2.1,0,3.8-1.7,3.8-3.8V15.3C26.3,13.4,24.9,11.9,23.1,11.6z M7.4,8.6c0-3.6,3.3-6.6,7.4-6.6
		s7.4,2.9,7.4,6.6v2.9H7.4V8.6z M25.2,25.6c0,1.5-1.2,2.7-2.7,2.7H6.9c-1.5,0-2.7-1.2-2.7-2.7V15.3c0-1.5,1.2-2.7,2.7-2.7h15.5
		c1.5,0,2.7,1.2,2.7,2.7V25.6z"/>
	<path class="st0" d="M14.7,15.7c-1.2,0-2.1,0.9-2.1,2.1V21c0,1.2,0.9,2.1,2.1,2.1s2.1-0.9,2.1-2.1v-3.2
		C16.8,16.6,15.9,15.7,14.7,15.7z M15.8,21c0,0.6-0.5,1.1-1.1,1.1c-0.6,0-1.1-0.5-1.1-1.1v-3.2c0-0.6,0.5-1.1,1.1-1.1
		c0.6,0,1.1,0.5,1.1,1.1V21z"/>
</g>
</svg>
