<?xml version="1.0" encoding="utf-8"?>
<!-- Generator: Adobe Illustrator 21.0.0, SVG Export Plug-In . SVG Version: 6.00 Build 0)  -->
<svg version="1.1" id="Calque_1" xmlns="http://www.w3.org/2000/svg" xmlns:xlink="http://www.w3.org/1999/xlink" x="0px" y="0px"
	 viewBox="0 0 23 23" style="enable-background:new 0 0 23 23;" xml:space="preserve">
<style type="text/css">
	.st0{fill:none;stroke:#FFFFFF;stroke-miterlimit:10;}
	.st1{fill:#FFFFFF;}
</style>
<rect x="1.1" y="1" class="st0" width="21" height="21"/>
<g>
	<path class="st1" d="M6.4,16.1c-0.2,0-0.3-0.1-0.4-0.2c-0.2-0.2-0.2-0.6,0.1-0.8l3.1-2.8c0.2-0.2,0.5-0.2,0.7,0l2.9,2.8
		c0.2,0.2,0.2,0.6,0,0.8c-0.2,0.2-0.6,0.2-0.8,0l-2.5-2.4L6.8,16C6.7,16.1,6.5,16.1,6.4,16.1L6.4,16.1z M6.4,16.1"/>
	<path class="st1" d="M8.6,11.2c-1.2,0-2.2-1-2.2-2.2s1-2.2,2.2-2.2s2.2,1,2.2,2.2S9.8,11.2,8.6,11.2L8.6,11.2z M8.6,7.9
		C8,7.9,7.5,8.4,7.5,9c0,0.6,0.5,1.1,1.1,1.1c0.6,0,1.1-0.5,1.1-1.1C9.7,8.4,9.2,7.9,8.6,7.9L8.6,7.9z M8.6,7.9"/>
	<path class="st1" d="M12.5,16.1c-0.1,0-0.3-0.1-0.4-0.2l-1.5-1.5c-0.2-0.2-0.2-0.6,0-0.8l3.3-3.5c0.2-0.2,0.6-0.2,0.8,0l3.1,3.3
		c0.2,0.2,0.2,0.6,0,0.8c-0.2,0.2-0.6,0.2-0.8,0l-2.7-2.9l-2.6,2.7l1.1,1.1c0.2,0.2,0.2,0.6,0,0.8C12.8,16.1,12.6,16.1,12.5,16.1
		L12.5,16.1z M12.5,16.1"/>
</g>
</svg>
