<?xml version="1.0" encoding="utf-8"?>
<!-- Generator: Adobe Illustrator 21.0.0, SVG Export Plug-In . SVG Version: 6.00 Build 0)  -->
<svg version="1.1" id="Calque_1" xmlns="http://www.w3.org/2000/svg" xmlns:xlink="http://www.w3.org/1999/xlink" x="0px" y="0px"
	 viewBox="0 0 30 30" style="enable-background:new 0 0 30 30;" xml:space="preserve">
<style type="text/css">
	.st0{fill:#FFFFFF;}
</style>
<g>
	<g>
		<g>
			<path class="st0" d="M15.5,1C9.7,1,4.5,4.5,2.2,9.8L2,9.8L2.1,10c-3,7.4,0.6,15.8,8,18.8c1.7,0.7,3.6,1.1,5.4,1.1
				c8,0,14.5-6.5,14.5-14.5S23.5,1,15.5,1z M26.8,22.8L26.1,22v-1.7c0-0.1,0-0.1,0-0.2l-1.9-3.8v-1.8c0-0.2-0.1-0.3-0.2-0.4l-1.4-1
				c-0.1-0.1-0.3-0.1-0.4-0.1l-1.8,0.4l-3-1.3L17,9.4l1.1-1.1h2.4l0.8,1.2c0.1,0.1,0.2,0.2,0.3,0.2l2.9,0.5c0.1,0,0.2,0,0.2,0
				l2.7-0.9C29.7,13.5,29.5,18.7,26.8,22.8z M24.8,5.8l-0.8,0.5l-2.2-0.4l-1.4-0.5c-0.1,0-0.2,0-0.3,0l-1.8,0.4l-0.8-0.3l0.6-1.2
				h1.6c0.1,0,0.1,0,0.2-0.1l1.7-0.8C22.9,4.1,23.9,4.9,24.8,5.8z M10.2,3l1.2,0.8c0.1,0,0.1,0.1,0.2,0.1l2.3,0.4L13.6,5l-1.2,0.4
				c-0.1,0-0.2,0.1-0.3,0.2l-1.4,2.3L8.6,9.2L5.3,9.7c-0.2,0-0.4,0.2-0.4,0.5v1.4c0,0.1,0.1,0.3,0.1,0.3l0.8,0.8v0.8l-2-1.3
				l-0.7-2.2C4.5,6.9,7,4.4,10.2,3z M8.8,18.9l-2.2-0.4l-0.8-1.6v-1.1l1.8-1.8l0.7,1.3c0.1,0.2,0.2,0.3,0.4,0.3h3.1l1.3,2.2
				c0.1,0.1,0.2,0.2,0.4,0.2h1.3l-0.3,1.7l-1.8,1.8c-0.1,0.1-0.1,0.2-0.1,0.3V23l-1.7,1.3c-0.1,0.1-0.2,0.2-0.2,0.4v1.7l-0.6-0.2
				l-0.8-2.1v-4.7C9.2,19.1,9,18.9,8.8,18.9z M7.4,26.3C2.8,22.9,0.9,17,2.6,11.5L3,12.7c0,0.1,0.1,0.2,0.2,0.2l2.4,1.6L5,15.1
				c-0.1,0.1-0.1,0.2-0.1,0.3v1.4c0,0.1,0,0.1,0.1,0.2l1,1.9c0.1,0.1,0.2,0.2,0.3,0.3l2,0.4v4.4c0,0.1,0,0.1,0,0.2l1,2.4
				C9.3,26.9,9.4,27,9.5,27l1.4,0.5c0,0,0.1,0,0.2,0c0.3,0,0.5-0.2,0.5-0.5v-2.2l1.7-1.3c0.1-0.1,0.2-0.2,0.2-0.4v-1.2l1.8-1.8
				c0.1-0.1,0.1-0.2,0.1-0.2l0.5-2.4c0.1-0.3-0.1-0.5-0.4-0.6c0,0-0.1,0-0.1,0h-1.7l-1.3-2.2c-0.1-0.1-0.2-0.2-0.4-0.2H9l-0.8-1.7
				c-0.1-0.1-0.2-0.2-0.4-0.3c-0.2,0-0.3,0-0.4,0.1l-0.6,0.6v-0.8c0-0.1-0.1-0.3-0.1-0.3l-0.8-0.8v-0.8l3-0.4c0.1,0,0.1,0,0.2-0.1
				l2.4-1.4c0.1,0,0.1-0.1,0.2-0.2l1.4-2.3l1.3-0.4c0.1,0,0.3-0.2,0.3-0.3L15,4c0.1-0.3-0.1-0.5-0.3-0.6c0,0,0,0-0.1,0L11.8,3
				l-0.5-0.3c3-1,6.3-0.9,9.3,0.3l-0.9,0.4h-1.8c-0.2,0-0.4,0.1-0.4,0.3l-1,1.9c-0.1,0.2,0,0.5,0.2,0.6c0,0,0,0,0.1,0l1.4,0.5
				c0.1,0,0.2,0,0.3,0l1.8-0.4l1.3,0.4c0,0,0,0,0.1,0l2.4,0.5c0.1,0,0.3,0,0.4-0.1l1.1-0.7c0.5,0.6,1,1.3,1.5,1.9l-2.4,0.8L22,8.8
				l-0.8-1.3c-0.1-0.1-0.2-0.2-0.4-0.2h-2.9c-0.1,0-0.3,0.1-0.3,0.1l-1.4,1.4C16,9,15.9,9.1,16,9.3l0.5,3.4c0,0.2,0.1,0.3,0.3,0.4
				l3.4,1.4c0.1,0,0.2,0.1,0.3,0l1.7-0.4l1.1,0.7v1.7c0,0.1,0,0.1,0,0.2l1.9,3.8v1.8c0,0.1,0.1,0.3,0.1,0.3l1,1
				C21.8,29.5,13.3,30.8,7.4,26.3z"/>
		</g>
	</g>
</g>
</svg>
