<?xml version="1.0" encoding="utf-8"?>
<!-- Generator: Adobe Illustrator 21.0.0, SVG Export Plug-In . SVG Version: 6.00 Build 0)  -->
<svg version="1.1" id="Calque_1" xmlns="http://www.w3.org/2000/svg" xmlns:xlink="http://www.w3.org/1999/xlink" x="0px" y="0px"
	 viewBox="0 0 60 54" style="enable-background:new 0 0 60 54;" xml:space="preserve">
<style type="text/css">
	.st0{fill:#278BFF;}
</style>
<g>
	<g>
		<path class="st0" d="M30.5,1C19.9,1,10.3,7.3,6.1,17.1l-0.3,0.1l0.1,0.4C0.4,31.1,7,46.5,20.5,52c3.2,1.3,6.5,1.9,10,1.9
			C45.1,53.9,57,42.1,57,27.5S45.1,1,30.5,1z M51.2,40.8l-1.4-1.4v-3.2c0-0.1,0-0.3-0.1-0.4L46.4,29v-3.3c0-0.3-0.1-0.6-0.4-0.7
			l-2.6-1.8c-0.2-0.1-0.5-0.2-0.7-0.1l-3.2,0.8l-5.4-2.3l-0.7-5.2l2.1-2.1h4.5l1.5,2.3c0.1,0.2,0.3,0.3,0.6,0.4l5.3,0.9
			c0.1,0,0.3,0,0.4,0l4.9-1.6C56.5,23.9,56,33.4,51.2,40.8z M47.6,9.7l-1.4,1l-4-0.8L39.6,9c-0.2-0.1-0.3-0.1-0.5,0l-3.3,0.8
			l-1.4-0.5l1.1-2.1h3c0.1,0,0.3,0,0.4-0.1l3.1-1.5C44,6.7,45.9,8,47.6,9.7z M20.8,4.7l2.1,1.4c0.1,0.1,0.2,0.1,0.3,0.1L27.5,7
			l-0.4,1.2L24.9,9c-0.2,0.1-0.4,0.2-0.5,0.4l-2.5,4.2L17.8,16l-6,0.9c-0.4,0.1-0.8,0.4-0.8,0.9v2.6c0,0.2,0.1,0.5,0.3,0.6l1.5,1.5
			v1.5l-3.7-2.4l-1.3-4C10.4,11.8,15,7.2,20.8,4.7z M18.3,33.7l-4-0.8l-1.5-3v-2.1l3.3-3.3l1.2,2.4c0.1,0.3,0.5,0.5,0.8,0.5h5.7
			l2.4,4c0.2,0.3,0.4,0.4,0.8,0.4h2.5L28.8,35l-3.3,3.3c-0.2,0.2-0.3,0.4-0.3,0.6v2.2L22,43.5c-0.2,0.2-0.4,0.4-0.4,0.7v3.2
			l-1.1-0.4L19,43.2v-8.7C19,34.1,18.7,33.8,18.3,33.7z M15.6,47.2c-8.3-6.2-11.8-17-8.8-27l0.7,2.2c0.1,0.2,0.2,0.3,0.3,0.5
			l4.4,2.9l-1,1c-0.2,0.2-0.3,0.4-0.3,0.6v2.6c0,0.1,0,0.3,0.1,0.4l1.8,3.5c0.1,0.2,0.4,0.4,0.6,0.5l3.7,0.7v8.1
			c0,0.1,0,0.2,0.1,0.3l1.8,4.4c0.1,0.2,0.3,0.4,0.5,0.5l2.6,0.9c0.1,0,0.2,0,0.3,0c0.5,0,0.9-0.4,0.9-0.9v-4l3.2-2.4
			c0.2-0.2,0.4-0.4,0.4-0.7v-2.3l3.3-3.3c0.1-0.1,0.2-0.3,0.2-0.5l0.9-4.4c0.1-0.5-0.2-0.9-0.7-1c-0.1,0-0.1,0-0.2,0h-3l-2.4-4
			c-0.2-0.3-0.4-0.4-0.8-0.4h-5.6l-1.5-3c-0.1-0.3-0.4-0.4-0.6-0.5c-0.3,0-0.6,0-0.8,0.2l-1.1,1.1v-1.4c0-0.2-0.1-0.5-0.3-0.6
			L12.8,20v-1.5l5.4-0.8c0.1,0,0.2-0.1,0.3-0.1L23,15c0.1-0.1,0.2-0.2,0.3-0.3l2.5-4.1l2.3-0.8c0.3-0.1,0.5-0.3,0.6-0.6l0.9-2.6
			c0.2-0.5-0.1-1-0.6-1.1c0,0-0.1,0-0.1,0l-5.1-0.9L22.8,4c5.6-1.8,11.6-1.6,17,0.6l-1.6,0.8h-3.3c-0.3,0-0.6,0.2-0.8,0.5l-1.8,3.5
			c-0.2,0.4,0,1,0.4,1.2c0,0,0.1,0,0.1,0l2.6,0.9c0.2,0.1,0.3,0.1,0.5,0l3.3-0.8l2.4,0.8c0,0,0.1,0,0.1,0l4.4,0.9
			c0.2,0,0.5,0,0.7-0.1l2-1.3c1,1.1,1.9,2.3,2.7,3.5L47.2,16l-4.7-0.8l-1.6-2.3c-0.2-0.2-0.4-0.4-0.7-0.4h-5.3
			c-0.2,0-0.5,0.1-0.6,0.3l-2.6,2.6c-0.2,0.2-0.3,0.5-0.2,0.7l0.9,6.2c0,0.3,0.2,0.6,0.5,0.7l6.2,2.6c0.2,0.1,0.4,0.1,0.6,0l3.2-0.8
			l1.9,1.3v3.1c0,0.1,0,0.3,0.1,0.4l3.4,6.9v3.3c0,0.2,0.1,0.5,0.3,0.6l1.8,1.8C42,53.2,26.6,55.4,15.6,47.2z"/>
	</g>
</g>
</svg>
