<?xml version="1.0" encoding="utf-8"?>
<!-- Generator: Adobe Illustrator 21.0.0, SVG Export Plug-In . SVG Version: 6.00 Build 0)  -->
<svg version="1.1" id="Calque_1" xmlns="http://www.w3.org/2000/svg" xmlns:xlink="http://www.w3.org/1999/xlink" x="0px" y="0px"
	 viewBox="0 0 23 23" style="enable-background:new 0 0 23 23;" xml:space="preserve">
<style type="text/css">
	.st0{fill:#FFFFFF;}
</style>
<g>
	<rect x="2" y="0.9" class="st0" width="0.7" height="16.2"/>
	<rect x="10.9" y="13" class="st0" width="0.7" height="8.4"/>
	<rect x="10.9" y="0.9" class="st0" width="0.7" height="7.9"/>
	<rect x="19.8" y="5.1" class="st0" width="0.7" height="16.4"/>
	<g>
		<path class="st0" d="M3.6,17.9v2.6H1v-2.6H3.6 M4.3,16.9H0.3C0.2,16.9,0,17,0,17.2v3.9c0,0.2,0.2,0.3,0.3,0.3h3.9
			c0.2,0,0.3-0.2,0.3-0.3v-3.9C4.6,17,4.5,16.9,4.3,16.9L4.3,16.9z"/>
	</g>
	<g>
		<path class="st0" d="M12.6,9.7v2.6H9.9V9.7H12.6 M13.2,8.7H9.3c-0.2,0-0.3,0.2-0.3,0.3V13c0,0.2,0.2,0.3,0.3,0.3h3.9
			c0.2,0,0.3-0.2,0.3-0.3V9.1C13.6,8.9,13.4,8.7,13.2,8.7L13.2,8.7z"/>
	</g>
	<g>
		<path class="st0" d="M21.5,1.9v2.6h-2.6V1.9H21.5 M22.2,0.9h-3.9c-0.2,0-0.3,0.2-0.3,0.3v3.9c0,0.2,0.2,0.3,0.3,0.3h3.9
			c0.2,0,0.3-0.2,0.3-0.3V1.2C22.5,1,22.3,0.9,22.2,0.9L22.2,0.9z"/>
	</g>
</g>
</svg>
