<?xml version="1.0" encoding="utf-8"?>
<!-- Generator: Adobe Illustrator 21.0.0, SVG Export Plug-In . SVG Version: 6.00 Build 0)  -->
<svg version="1.1" id="Calque_1" xmlns="http://www.w3.org/2000/svg" xmlns:xlink="http://www.w3.org/1999/xlink" x="0px" y="0px"
	 viewBox="0 0 62.3 56.3" style="enable-background:new 0 0 62.3 56.3;" xml:space="preserve">
<style type="text/css">
	.st0{fill:#278BFF;}
	.st1{fill:none;stroke:#278BFF;stroke-width:2;stroke-miterlimit:10;}
</style>
<g>
	<rect x="6.9" y="1.9" class="st0" width="1.8" height="41.9"/>
	<rect x="30" y="33.4" class="st0" width="1.8" height="21.8"/>
	<rect x="30" y="1.9" class="st0" width="1.8" height="20.4"/>
	<rect x="53.1" y="12.9" class="st0" width="1.8" height="42.3"/>
	<path class="st1" d="M1.8,44.2v10.2c0,0.5,0.4,0.9,0.9,0.9h10.2c0.5,0,0.9-0.4,0.9-0.9V44.2c0-0.5-0.4-0.9-0.9-0.9H2.7
		C2.2,43.3,1.8,43.7,1.8,44.2z"/>
	<path class="st1" d="M24.9,23.1v10.2c0,0.5,0.4,0.9,0.9,0.9H36c0.5,0,0.9-0.4,0.9-0.9V23.1c0-0.5-0.4-0.9-0.9-0.9H25.8
		C25.3,22.2,24.9,22.6,24.9,23.1z"/>
	<path class="st1" d="M48.1,2.8V13c0,0.5,0.4,0.9,0.9,0.9h10.2c0.5,0,0.9-0.4,0.9-0.9V2.8c0-0.5-0.4-0.9-0.9-0.9H48.9
		C48.4,1.9,48.1,2.3,48.1,2.8z"/>
</g>
</svg>
